<svg height="32" viewBox="0 0 32 32" width="32" xmlns="http://www.w3.org/2000/svg"><path d="m4.224 10.089v11.667h1.365v-8.438c.01-.531-.01-1.068-.068-1.599h.052c.099.255.224.5.37.729l6 9.302h1.672v-11.661h-1.359v8.203c-.016.573.016 1.146.083 1.714h-.031c-.073-.141-.234-.401-.474-.781l-5.839-9.135zm12.417 0v11.667h6.203l.005-1.281h-4.813v-4.047h4.214v-1.229h-4.214v-3.875h4.521v-1.234zm7.25 0v1.234h3.354v10.432h1.365v-10.432h3.391v-1.234zm-23.021 10c-.229.005-.448.104-.609.276-.167.167-.26.401-.26.641-.005.24.094.469.26.641s.401.271.641.266c.245 0 .474-.094.641-.266.172-.167.271-.401.271-.641s-.099-.474-.271-.641c-.167-.177-.396-.276-.641-.276-.01 0-.021 0-.031 0z" fill="#fff"/></svg>